<svg xmlns="http://www.w3.org/2000/svg" viewBox="0 0 64 64" width="64" height="64">
  <defs>
    <linearGradient id="grad" x1="0%" y1="0%" x2="100%" y2="100%">
      <stop offset="0%" style="stop-color:#667eea;stop-opacity:1" />
      <stop offset="100%" style="stop-color:#764ba2;stop-opacity:1" />
    </linearGradient>
  </defs>

  <!-- Background -->
  <rect width="64" height="64" rx="12" fill="url(#grad)"/>

  <!-- Clipboard -->
  <rect x="18" y="14" width="28" height="38" rx="3" fill="white" opacity="0.95"/>

  <!-- Clip -->
  <rect x="26" y="12" width="12" height="5" rx="2.5" fill="white" opacity="0.9"/>
  <rect x="27" y="13" width="10" height="3" rx="1.5" fill="#667eea"/>

  <!-- Checkmarks -->
  <circle cx="23" cy="22" r="2" fill="none" stroke="#27ae60" stroke-width="1.5"/>
  <path d="M22 22 L23 23 L24.5 21" fill="none" stroke="#27ae60" stroke-width="1.5" stroke-linecap="round"/>
  <line x1="28" y1="22" x2="40" y2="22" stroke="#667eea" stroke-width="1.5" stroke-linecap="round" opacity="0.6"/>

  <circle cx="23" cy="30" r="2" fill="none" stroke="#27ae60" stroke-width="1.5"/>
  <path d="M22 30 L23 31 L24.5 29" fill="none" stroke="#27ae60" stroke-width="1.5" stroke-linecap="round"/>
  <line x1="28" y1="30" x2="38" y2="30" stroke="#667eea" stroke-width="1.5" stroke-linecap="round" opacity="0.6"/>

  <circle cx="23" cy="38" r="2" fill="none" stroke="#27ae60" stroke-width="1.5"/>
  <path d="M22 38 L23 39 L24.5 37" fill="none" stroke="#27ae60" stroke-width="1.5" stroke-linecap="round"/>
  <line x1="28" y1="38" x2="39" y2="38" stroke="#667eea" stroke-width="1.5" stroke-linecap="round" opacity="0.6"/>

  <circle cx="23" cy="46" r="2" fill="none" stroke="#bdc3c7" stroke-width="1.5"/>
  <line x1="28" y1="46" x2="36" y2="46" stroke="#bdc3c7" stroke-width="1.5" stroke-linecap="round" opacity="0.4"/>
</svg>
