<svg xmlns="http://www.w3.org/2000/svg" viewBox="0 0 200 200" width="200" height="200">
  <defs>
    <linearGradient id="grad1" x1="0%" y1="0%" x2="100%" y2="100%">
      <stop offset="0%" style="stop-color:#667eea;stop-opacity:1" />
      <stop offset="100%" style="stop-color:#764ba2;stop-opacity:1" />
    </linearGradient>
  </defs>

  <!-- Background circle -->
  <circle cx="100" cy="100" r="95" fill="url(#grad1)"/>

  <!-- Clipboard base -->
  <rect x="60" y="50" width="80" height="105" rx="8" fill="white" opacity="0.95"/>

  <!-- Clipboard clip -->
  <rect x="85" y="45" width="30" height="12" rx="6" fill="white" opacity="0.9"/>
  <rect x="88" y="47" width="24" height="8" rx="4" fill="#667eea"/>

  <!-- Checkmarks and lines representing tasks -->
  <!-- Line 1 - Expenses (money) -->
  <circle cx="72" cy="75" r="5" fill="none" stroke="#27ae60" stroke-width="2.5"/>
  <path d="M70 75 L71.5 76.5 L74 73.5" fill="none" stroke="#27ae60" stroke-width="2.5" stroke-linecap="round"/>
  <line x1="82" y1="75" x2="125" y2="75" stroke="#667eea" stroke-width="3" stroke-linecap="round" opacity="0.6"/>

  <!-- Line 2 - Shopping -->
  <circle cx="72" cy="95" r="5" fill="none" stroke="#27ae60" stroke-width="2.5"/>
  <path d="M70 95 L71.5 96.5 L74 93.5" fill="none" stroke="#27ae60" stroke-width="2.5" stroke-linecap="round"/>
  <line x1="82" y1="95" x2="115" y2="95" stroke="#667eea" stroke-width="3" stroke-linecap="round" opacity="0.6"/>

  <!-- Line 3 - Gym -->
  <circle cx="72" cy="115" r="5" fill="none" stroke="#27ae60" stroke-width="2.5"/>
  <path d="M70 115 L71.5 116.5 L74 113.5" fill="none" stroke="#27ae60" stroke-width="2.5" stroke-linecap="round"/>
  <line x1="82" y1="115" x2="120" y2="115" stroke="#667eea" stroke-width="3" stroke-linecap="round" opacity="0.6"/>

  <!-- Line 4 - Empty task -->
  <circle cx="72" cy="135" r="5" fill="none" stroke="#bdc3c7" stroke-width="2.5"/>
  <line x1="82" y1="135" x2="110" y2="135" stroke="#bdc3c7" stroke-width="3" stroke-linecap="round" opacity="0.4"/>
</svg>
